<svg width="70" height="70" viewBox="0 0 70 70" fill="none" xmlns="http://www.w3.org/2000/svg">
<g clip-path="url(#clip0_68_134)">
<rect width="70" height="70" fill="white"/>
<circle cx="35" cy="35" r="34.75" fill="black" stroke="black" stroke-width="0.5"/>
<path d="M31.885 26V18.5H25.9022H37.7997M20.7443 34.4318H15.0925V28.517V40.4145" stroke="#FFE39A" stroke-width="2.14144"/>
<path d="M24.7014 29.9946H20.9055C20.839 29.9946 20.7852 30.0485 20.7852 30.1149V42.1117C20.7852 42.1782 20.839 42.232 20.9055 42.232H24.7465C24.7784 42.232 24.809 42.2447 24.8315 42.2673L28.3144 45.7501C28.337 45.7727 28.3676 45.7854 28.3995 45.7854H44.6139C44.6803 45.7854 44.7342 45.7315 44.7342 45.6651V40.8068C44.7342 40.7403 44.788 40.6865 44.8545 40.6865H48.8969C48.9634 40.6865 49.0172 40.7403 49.0172 40.8068V44.1014C49.0172 44.1678 49.0711 44.2217 49.1375 44.2217H51.4149C51.4468 44.2217 51.4774 44.209 51.5 44.1865L54.9647 40.7217C54.9873 40.6991 55 40.6685 55 40.6366V30.8104C55 30.7785 54.9873 30.7479 54.9647 30.7253L52.7237 28.4843C52.7011 28.4617 52.6705 28.4491 52.6386 28.4491H49.1375C49.0711 28.4491 49.0172 28.5029 49.0172 28.5694V31.728C49.0172 31.7945 48.9634 31.8483 48.8969 31.8483H44.8545C44.788 31.8483 44.7342 31.7945 44.7342 31.728V26.0539C44.7342 25.9875 44.6803 25.9336 44.6139 25.9336H39.3633H25.8612C25.8055 25.9336 25.7571 25.9718 25.7441 26.0259L24.8184 29.9023C24.8054 29.9564 24.757 29.9946 24.7014 29.9946Z" fill="black" stroke="#FFE39A" stroke-width="2.14144"/>
</g>
<defs>
<clipPath id="clip0_68_134">
<rect width="70" height="70" fill="white"/>
</clipPath>
</defs>
</svg>
